<svg width="96" height="96" viewBox="0 0 96 96" fill="none" xmlns="http://www.w3.org/2000/svg">
<rect width="96" height="96" fill="white"/>
<path d="M25.6637 89.72C21.4397 89.72 17.8397 89.048 14.8637 87.704C11.9357 86.36 9.72772 84.68 8.23972 82.664C6.79972 80.6 6.03172 78.488 5.93572 76.328C5.93572 75.896 6.07972 75.56 6.36772 75.32C6.70372 75.032 7.08772 74.888 7.51972 74.888H13.9997C15.0557 74.888 15.7517 75.368 16.0877 76.328C17.1437 79.784 20.3597 81.512 25.7357 81.512C28.6637 81.512 30.9677 80.84 32.6477 79.496C34.3277 78.104 35.1677 76.136 35.1677 73.592C35.1677 68.792 32.1677 66.392 26.1677 66.392H18.7517C18.2237 66.392 17.7917 66.224 17.4557 65.888C17.1197 65.552 16.9517 65.144 16.9517 64.664V61.64C16.9517 60.872 17.2877 60.152 17.9597 59.48L30.8477 46.88H10.2557C9.77572 46.88 9.36772 46.712 9.03172 46.376C8.69572 46.04 8.52772 45.632 8.52772 45.152V40.4C8.52772 39.872 8.67172 39.44 8.95972 39.104C9.29572 38.768 9.72772 38.6 10.2557 38.6H41.1437C41.6717 38.6 42.1037 38.768 42.4397 39.104C42.7757 39.44 42.9437 39.872 42.9437 40.4V44.72C42.9437 45.44 42.6317 46.112 42.0077 46.736L29.5517 59.552L30.4157 59.624C35.0237 60.008 38.6717 61.4 41.3597 63.8C44.0957 66.2 45.4637 69.632 45.4637 74.096C45.4637 77.264 44.5997 80.024 42.8717 82.376C41.1917 84.728 38.8397 86.552 35.8157 87.848C32.8397 89.096 29.4557 89.72 25.6637 89.72ZM50.2073 89C49.7273 89 49.3193 88.832 48.9833 88.496C48.6473 88.16 48.4793 87.752 48.4793 87.272V40.4C48.4793 39.872 48.6233 39.44 48.9113 39.104C49.2473 38.768 49.6793 38.6 50.2073 38.6H67.7753C81.8873 38.6 89.0873 45.128 89.3753 58.184C89.4713 60.968 89.5193 62.84 89.5193 63.8C89.5193 64.712 89.4713 66.56 89.3753 69.344C89.1833 76.064 87.3833 81.032 83.9753 84.248C80.5673 87.416 75.2873 89 68.1353 89H50.2073ZM67.7753 80.72C71.8073 80.72 74.7113 79.832 76.4873 78.056C78.2633 76.232 79.1993 73.256 79.2953 69.128C79.3913 66.248 79.4393 64.448 79.4393 63.728C79.4393 62.96 79.3913 61.184 79.2953 58.4C79.1993 54.464 78.1913 51.56 76.2713 49.688C74.3993 47.816 71.4473 46.88 67.4153 46.88H58.4873V80.72H67.7753Z" fill="#017BDA"/>
<path d="M8 24V6H35V24L21.5 37.5L8 24Z" fill="#333333"/>
<path d="M93 15L3 15" stroke="#333333" stroke-width="7"/>
</svg>
